<svg aria-hidden="true" style="position: absolute; width: 0; height: 0; overflow: hidden;" version="1.1" xmlns="http://www.w3.org/2000/svg" xmlns:xlink="http://www.w3.org/1999/xlink">
<defs>

<symbol id="icon-burger" viewBox="0 0 32 32">
<path fill="#f6f7f8" style="fill: var(--color1, #f6f7f8)" d="M8.533 0h14.933c4.713 0 8.533 3.821 8.533 8.533v14.933c0 4.713-3.82 8.533-8.533 8.533h-14.933c-4.713 0-8.533-3.82-8.533-8.533v-14.933c0-4.713 3.821-8.533 8.533-8.533z"></path>
<path fill="none" stroke="#dedee3" style="stroke: var(--color2, #dedee3)" stroke-linejoin="miter" stroke-linecap="butt" stroke-miterlimit="4" stroke-width="0.8" d="M8.533 0.4h14.933c4.492 0 8.133 3.641 8.133 8.133v14.933c0 4.492-3.641 8.133-8.133 8.133h-14.933c-4.492 0-8.133-3.641-8.133-8.133v-14.933c0-4.492 3.641-8.133 8.133-8.133z"></path>
<path fill="none" stroke="#525352" style="stroke: var(--color3, #525352)" stroke-linejoin="miter" stroke-linecap="round" stroke-miterlimit="4" stroke-width="1.6" d="M10.4 11.2h12"></path>
<path fill="none" stroke="#525352" style="stroke: var(--color3, #525352)" stroke-linejoin="miter" stroke-linecap="round" stroke-miterlimit="4" stroke-width="1.6" d="M12.8 16h7.2"></path>
<path fill="none" stroke="#525352" style="stroke: var(--color3, #525352)" stroke-linejoin="miter" stroke-linecap="round" stroke-miterlimit="4" stroke-width="1.6" d="M10.4 20.8h12"></path>
</symbol>

<symbol id="icon-arrow" viewBox="0 0 35 32">
<path stroke-linejoin="miter" stroke-linecap="butt" stroke-miterlimit="4" stroke-width="2.9091" d="M0 16h32M32 16l-11.636-14.545M32 16l-11.636 14.545"></path>
</symbol>

<symbol id="icon-close" viewBox="0 0 32 32">
<path fill="#e8e9ed" style="fill: var(--color1, #e8e9ed)" d="M8.533 0h14.933c4.713 0 8.533 3.821 8.533 8.533v14.933c0 4.713-3.82 8.533-8.533 8.533h-14.933c-4.713 0-8.533-3.82-8.533-8.533v-14.933c0-4.713 3.821-8.533 8.533-8.533z"></path>
<path fill="none" stroke="#dedee3" style="stroke: var(--color2, #dedee3)" stroke-linejoin="miter" stroke-linecap="butt" stroke-miterlimit="4" stroke-width="0.8" d="M8.533 0.4h14.933c4.492 0 8.133 3.641 8.133 8.133v14.933c0 4.492-3.641 8.133-8.133 8.133h-14.933c-4.492 0-8.133-3.641-8.133-8.133v-14.933c0-4.492 3.641-8.133 8.133-8.133z"></path>
<path fill="none" stroke="#525352" style="stroke: var(--color3, #525352)" stroke-linejoin="miter" stroke-linecap="round" stroke-miterlimit="4" stroke-width="1.6" d="M12 20.585l8.485-8.485"></path>
<path fill="none" stroke="#525352" style="stroke: var(--color3, #525352)" stroke-linejoin="miter" stroke-linecap="round" stroke-miterlimit="4" stroke-width="1.6" d="M20.77 20.215l-8.747-8.216"></path>
</symbol>

</defs>
</svg>
